<svg width="20" height="18" viewBox="0 0 20 18" fill="none" xmlns="http://www.w3.org/2000/svg">
<path fill-rule="evenodd" clip-rule="evenodd" d="M10.7225 1.18074C10.94 1.29893 11.1166 1.4682 11.2329 1.66989L18.8518 15.2146C18.9581 15.402 19.0087 15.6105 18.9988 15.8202C18.9889 16.0299 18.9189 16.2339 18.7953 16.4128C18.6718 16.5917 18.4989 16.7395 18.293 16.8423C18.0871 16.9451 17.8551 16.9994 17.6189 17H2.38107C2.14493 16.9994 1.9129 16.9451 1.707 16.8423C1.5011 16.7395 1.32818 16.5917 1.20465 16.4128C1.08113 16.2339 1.0111 16.0299 1.00121 15.8202C0.991331 15.6105 1.04192 15.402 1.14819 15.2146L8.76712 1.66989C8.88337 1.4682 9.05998 1.29893 9.27751 1.18074C9.49504 1.06254 9.74505 1 10 1C10.255 1 10.505 1.06254 10.7225 1.18074ZM10 5C10.5523 5 11 5.37608 11 5.84V10.16C11 10.6239 10.5523 11 10 11C9.44771 11 9 10.6239 9 10.16V5.84C9 5.37608 9.44771 5 10 5ZM11 14C11 14.5523 10.5523 15 10 15C9.44771 15 9 14.5523 9 14C9 13.4477 9.44771 13 10 13C10.5523 13 11 13.4477 11 14Z" fill="#FF4218"/>
</svg>
