<svg width="18" height="18" viewBox="0 0 18 18" fill="none" xmlns="http://www.w3.org/2000/svg">
<path fill-rule="evenodd" clip-rule="evenodd" d="M18 9C18 13.9706 13.9706 18 9 18C4.02944 18 0 13.9706 0 9C0 4.02944 4.02944 0 9 0C13.9706 0 18 4.02944 18 9ZM14.0999 6.73413C14.4843 6.33757 14.4744 5.70449 14.0779 5.32009C13.6813 4.93569 13.0482 4.94554 12.6638 5.34209L7.31292 10.8622L5.53706 8.54796C5.20085 8.10981 4.5731 8.02718 4.13495 8.3634C3.6968 8.69962 3.61417 9.32737 3.95038 9.76552L5.98254 12.4138C6.12483 12.6026 6.30694 12.7578 6.516 12.8684C6.72568 12.9793 6.95722 13.0425 7.19409 13.0536C7.42653 13.0656 7.65891 13.028 7.87571 12.9431C8.09419 12.8576 8.29172 12.7261 8.45492 12.5576L8.45502 12.5575L8.4559 12.5566L14.0999 6.73413Z" fill="#2BB828"/>
</svg>
